<svg aria-hidden="true" style="position: absolute; width: 0; height: 0; overflow: hidden;" version="1.1" xmlns="http://www.w3.org/2000/svg" xmlns:xlink="http://www.w3.org/1999/xlink">
<defs>
<symbol id="mobile-menu-open" viewBox="0 0 32 32">
<path fill="#252536f2" style="fill: var(--color2, #252536f2)" d="M0 0h32v32h-32v-32z"></path>
<path fill="#ff1a1a" style="fill: var(--color1, #ff1a1a)" d="M2.667 7.993c0-0.733 0.595-1.327 1.327-1.327h10.68c0.352 0 0.689 0.14 0.938 0.389s0.389 0.586 0.389 0.938c0 0.352-0.14 0.689-0.389 0.938s-0.586 0.389-0.938 0.389h-10.68c-0.352 0-0.689-0.14-0.938-0.389s-0.389-0.586-0.389-0.938zM2.667 16c0-0.733 0.595-1.327 1.327-1.327h24.013c0.352 0 0.689 0.14 0.938 0.389s0.389 0.586 0.389 0.938c0 0.352-0.14 0.689-0.389 0.938s-0.586 0.389-0.938 0.389h-24.013c-0.352 0-0.689-0.14-0.938-0.389s-0.389-0.586-0.389-0.938zM3.993 22.68c-0.352 0-0.689 0.14-0.938 0.389s-0.389 0.586-0.389 0.938c0 0.352 0.14 0.689 0.389 0.938s0.586 0.389 0.938 0.389h16.013c0.352 0 0.689-0.14 0.938-0.389s0.389-0.586 0.389-0.938c0-0.352-0.14-0.689-0.389-0.938s-0.586-0.389-0.938-0.389h-16.013z"></path>
</symbol>
<symbol id="mobile-menu-close" viewBox="0 0 32 32">
<path fill=" #252536f2" style="fill: var(--color2,  #252536f2)" d="M0 0h32v32h-32v-32z"></path>
<path fill="none" stroke="#FFFFFF" style="stroke: var(--color1, #FFFFFF)" stroke-linejoin="round" stroke-linecap="round" stroke-miterlimit="4" stroke-width="2.6667" d="M24 8l-16 16"></path>
<path fill="none" stroke="#FFFFFF" style="stroke: var(--color1, #FFFFFF)" stroke-linejoin="round" stroke-linecap="round" stroke-miterlimit="4" stroke-width="2.6667" d="M8 8l16 16"></path>
</symbol>
<symbol id="icon-visa" viewBox="0 0 32 32">
<path fill="#fff" style="fill: var(--color1, #fff)" d="M2.207 5.241h27.586c1.066 0 1.931 0.865 1.931 1.931v17.655c0 1.066-0.865 1.931-1.931 1.931h-27.586c-1.066 0-1.931-0.865-1.931-1.931v-17.655c0-1.066 0.865-1.931 1.931-1.931z"></path>
<path fill="#15195a" style="fill: var(--color2, #15195a)" d="M14.208 20.101h-2.13l1.333-7.725h2.13l-1.332 7.725z"></path>
<path fill="#15195a" style="fill: var(--color2, #15195a)" d="M21.931 12.565c-0.42-0.156-1.087-0.329-1.911-0.329-2.104 0-3.585 1.052-3.595 2.556-0.017 1.109 1.061 1.726 1.867 2.096 0.824 0.378 1.104 0.625 1.104 0.962-0.008 0.518-0.666 0.756-1.279 0.756-0.851 0-1.306-0.123-1.999-0.411l-0.28-0.123-0.298 1.734c0.5 0.213 1.42 0.403 2.376 0.411 2.235 0 3.691-1.036 3.708-2.638 0.009-0.879-0.561-1.553-1.788-2.104-0.745-0.353-1.201-0.592-1.201-0.953 0.009-0.329 0.386-0.665 1.227-0.665 0.693-0.017 1.201 0.14 1.587 0.296l0.193 0.082 0.29-1.668z"></path>
<path fill="#15195a" style="fill: var(--color2, #15195a)" d="M25.744 12.377h1.648l1.719 7.724h-1.973c0 0-0.193-0.887-0.254-1.159h-2.735c-0.079 0.205-0.447 1.159-0.447 1.159h-2.235l3.165-7.084c0.219-0.501 0.605-0.641 1.114-0.641zM25.613 15.203c0 0-0.675 1.717-0.851 2.161h1.771c-0.088-0.386-0.491-2.235-0.491-2.235l-0.149-0.666c-0.063 0.171-0.153 0.407-0.215 0.566-0.041 0.108-0.069 0.18-0.066 0.174z"></path>
<path fill="#15195a" style="fill: var(--color2, #15195a)" d="M2.846 12.377h3.428c0.465 0.016 0.842 0.156 0.964 0.649l0.745 3.549c0 0 0 0 0 0.001l0.228 1.068 2.086-5.267h2.253l-3.349 7.716h-2.253l-1.899-6.712c-0.655-0.359-1.403-0.648-2.239-0.848l0.035-0.156z"></path>
</symbol>
<symbol id="icon-mastercard" viewBox="0 0 32 32">
<path fill="#fff" style="fill: var(--color1, #fff)" d="M2.207 5.241h27.586c1.066 0 1.931 0.865 1.931 1.931v17.655c0 1.066-0.865 1.931-1.931 1.931h-27.586c-1.066 0-1.931-0.865-1.931-1.931v-17.655c0-1.066 0.865-1.931 1.931-1.931z"></path>
<path fill="#ff5f00" style="fill: var(--color3, #ff5f00)" d="M18.93 20.953h-5.711v-10.187h5.711v10.187z"></path>
<path fill="#eb001b" style="fill: var(--color4, #eb001b)" d="M13.585 15.858c0-2.067 0.975-3.907 2.493-5.094-1.11-0.867-2.511-1.385-4.034-1.385-3.605 0-6.527 2.901-6.527 6.479s2.922 6.479 6.527 6.479c1.523 0 2.924-0.518 4.034-1.385-1.518-1.186-2.493-3.027-2.493-5.094z"></path>
<path fill="#f79e1b" style="fill: var(--color5, #f79e1b)" d="M26.632 15.858c0 3.578-2.922 6.479-6.527 6.479-1.523 0-2.924-0.518-4.034-1.385 1.518-1.186 2.493-3.027 2.493-5.094s-0.975-3.907-2.493-5.094c1.11-0.867 2.512-1.385 4.034-1.385 3.605 0 6.527 2.901 6.527 6.479z"></path>
</symbol>
<symbol id="icon-skrill" viewBox="0 0 32 32">
<path fill="#fff" style="fill: var(--color1, #fff)" d="M2.207 5.241h27.586c1.066 0 1.931 0.865 1.931 1.931v17.655c0 1.066-0.865 1.931-1.931 1.931h-27.586c-1.066 0-1.931-0.865-1.931-1.931v-17.655c0-1.066 0.865-1.931 1.931-1.931z"></path>
<path fill="#862165" style="fill: var(--color6, #862165)" d="M26.841 11.984v8.008h2.203v-8.4l-2.203 0.392z"></path>
<path fill="#862165" style="fill: var(--color6, #862165)" d="M23.625 11.984l2.202-0.392v8.4h-2.202v-8.008z"></path>
<path fill="#862165" style="fill: var(--color6, #862165)" d="M20.489 19.992v-6.144h2.203v6.144h-2.203z"></path>
<path fill="#862165" style="fill: var(--color6, #862165)" d="M20.504 12.181c0-0.596 0.486-1.079 1.086-1.079 0.6 0 1.086 0.483 1.086 1.079s-0.486 1.079-1.086 1.079c-0.599 0-1.086-0.482-1.086-1.079z"></path>
<path fill="#862165" style="fill: var(--color6, #862165)" d="M19.246 13.758c-2.035 0.065-3.069 0.973-3.069 2.778v3.456h2.221v-2.819c0-1.080 0.142-1.543 1.433-1.587v-1.796c-0.217-0.046-0.585-0.032-0.585-0.032v0z"></path>
<path fill="#862165" style="fill: var(--color6, #862165)" d="M13.27 13.842c-0.049 0.123-0.401 1.113-1.255 2.139v-4.388l-2.273 0.447v7.953h2.273v-2.459c0.658 0.982 0.984 2.459 0.984 2.459h2.722c-0.269-1.113-1.447-3.164-1.447-3.164 1.058-1.333 1.522-2.752 1.596-2.987h-2.6z"></path>
<path fill="#862165" style="fill: var(--color6, #862165)" d="M5.93 14.718c-0.278-0.018-0.923-0.060-0.923-0.636 0-0.696 0.928-0.696 1.276-0.696 0.612 0 1.405 0.179 1.971 0.348 0 0 0.315 0.111 0.584 0.224l0.025 0.007v-1.906l-0.034-0.010c-0.669-0.232-1.445-0.456-2.886-0.456-2.483 0-3.363 1.437-3.363 2.669 0 0.71 0.306 2.381 3.149 2.573 0.242 0.015 0.882 0.052 0.882 0.647 0 0.492-0.524 0.782-1.405 0.782-0.965 0-1.902-0.244-2.471-0.476v1.962c0.852 0.223 1.812 0.333 2.937 0.333 2.427 0 3.515-1.36 3.515-2.708 0-1.528-1.217-2.521-3.258-2.657v0z"></path>
</symbol>
</defs>
</svg>
